<!DOCTYPE svg PUBLIC "-//W3C//DTD SVG 1.1//EN" "http://www.w3.org/Graphics/SVG/1.1/DTD/svg11.dtd">
<!-- Uploaded to: SVG Repo, www.svgrepo.com, Transformed by: SVG Repo Mixer Tools -->
<svg width="800px" height="800px" viewBox="0 0 24 24" fill="none" xmlns="http://www.w3.org/2000/svg" stroke="#164584">
<g id="SVGRepo_bgCarrier" stroke-width="0"/>
<g id="SVGRepo_iconCarrier"> <path d="M11 15C12.1046 15 13 15.8954 13 17C13 18.1046 12.1046 19 11 19C9.89543 19 9 18.1046 9 17C9 15.8954 9.89543 15 11 15ZM11 15V8M15 6H18M15 8H18M15 10H18M15 12H18M11 3C12.1046 3 13 3.89543 13 5L13.0011 13.5358C14.1961 14.2275 15 15.5199 15 17C15 19.2091 13.2091 21 11 21C8.79086 21 7 19.2091 7 17C7 15.5195 7.80434 14.2268 8.99988 13.5352L9 5C9 3.89543 9.89543 3 11 3Z" stroke="#164584" stroke-linejoin="round"/> </g>
</svg>